<svg width="148" height="61" viewBox="0 0 148 61" fill="none" xmlns="http://www.w3.org/2000/svg">
<g id="todoIcon">
<g id="pencil">
<path id="Vector 1" d="M13.3058 31.8462L19.0968 48L25.6117 31.8462" stroke="black"/>
<path id="Vector 2" d="M13.3059 31.8461H6.79102L12.582 27.8077" stroke="black"/>
<path id="Vector 3" d="M25.6118 31.8461H32.1266L26.3356 27.8077" stroke="black"/>
<path id="Vector 4" d="M12.582 27.8077C12.582 16.5 16.4426 13.2244 18.373 13" stroke="black"/>
<path id="Vector 5" d="M27.0595 27.8077C27.0595 16.5 23.1988 13.2244 21.2685 13" stroke="black"/>
<path id="Vector 6" d="M17.6491 13L19.0969 23.7692L21.2685 13" stroke="black"/>
<path id="Vector 7" d="M11.4098 35.4879C1.20676 35.8589 -6.90054 40.6701 14.3053 44.2379M29.955 22.4231C40.8131 21.75 49.4996 23.2308 32.1266 29.1538" stroke="black"/>
<path id="Vector 8" d="M28.3765 31.7913C27.9348 31.7913 27.5096 31.903 27.0689 31.903C26.8835 31.903 26.6982 31.903 26.5128 31.903C26.4245 31.903 26.3962 31.8612 26.3157 31.8316C26.0849 31.7469 25.8539 31.7354 25.611 31.7354" stroke="black" stroke-linecap="round"/>
<path id="Vector 9" d="M13.6455 32.8953C13.6304 32.8812 13.6195 32.8624 13.6008 32.8538" stroke="black" stroke-linecap="round"/>
<path id="Vector 10" d="M13.3865 32.1894C13.3865 32.1726 13.3663 31.9669 13.3909 31.9486C13.4051 31.938 13.3944 31.8978 13.4063 31.884C13.4216 31.8662 13.4474 31.8067 13.449 31.7825C13.4525 31.7269 13.4847 31.6742 13.4847 31.6205C13.4847 31.5292 13.4669 31.5001 13.3636 31.5001C13.3388 31.5001 13.2768 31.4905 13.31 31.5214C13.3261 31.5363 13.3796 31.5434 13.3865 31.5546C13.3961 31.5702 13.4189 31.5978 13.44 31.5998C13.4715 31.6027 13.5416 31.6253 13.5671 31.6016C13.6028 31.5684 13.5864 31.419 13.6003 31.4642C13.6131 31.5059 13.6008 31.5645 13.6008 31.6081C13.6008 31.6498 13.5953 31.6579 13.6455 31.6579" stroke="black" stroke-width="0.5" stroke-linecap="round"/>
<path id="Vector 11" d="M12.6667 26.794C12.6519 26.9454 12.5827 27.1521 12.4526 27.2489C12.2785 27.3784 12.4221 27.4751 12.4221 27.6185C12.4221 27.7509 12.7204 27.757 12.7278 27.8743C12.7438 28.1265 13.4016 27.6469 13.1559 27.6469" stroke="black" stroke-width="0.5" stroke-linecap="round"/>
</g>
<path id="Work in progress" d="M45.638 15L44.238 6.278H45.148L46.086 12.172L47.486 6.922H47.794L49.208 12.2L50.006 6.278H50.832L49.446 15H49.068L47.57 9.302L46.044 15H45.638ZM54.5 15.112C53.9213 15.112 53.408 14.972 52.96 14.692C52.5213 14.4027 52.176 14.0107 51.924 13.516C51.672 13.012 51.546 12.438 51.546 11.794C51.546 11.1407 51.672 10.5667 51.924 10.072C52.176 9.568 52.5213 9.176 52.96 8.896C53.408 8.60667 53.9213 8.462 54.5 8.462C55.0787 8.462 55.5873 8.60667 56.026 8.896C56.474 9.176 56.824 9.568 57.076 10.072C57.328 10.5667 57.454 11.1407 57.454 11.794C57.454 12.438 57.328 13.012 57.076 13.516C56.824 14.0107 56.474 14.4027 56.026 14.692C55.5873 14.972 55.0787 15.112 54.5 15.112ZM54.5 14.272C54.8733 14.272 55.2 14.1647 55.48 13.95C55.76 13.7353 55.9793 13.4413 56.138 13.068C56.306 12.6947 56.39 12.2653 56.39 11.78C56.39 11.2947 56.306 10.8653 56.138 10.492C55.9793 10.1187 55.76 9.82933 55.48 9.624C55.2 9.40933 54.8733 9.302 54.5 9.302C54.136 9.302 53.8093 9.40933 53.52 9.624C53.24 9.82933 53.016 10.1187 52.848 10.492C52.6893 10.8653 52.61 11.2947 52.61 11.78C52.61 12.2653 52.6893 12.6947 52.848 13.068C53.016 13.4413 53.24 13.7353 53.52 13.95C53.8093 14.1647 54.136 14.272 54.5 14.272ZM59.666 8.602H60.716L60.674 10.464L60.548 10.254C60.604 9.96467 60.702 9.708 60.842 9.484C60.982 9.26 61.15 9.07333 61.346 8.924C61.542 8.76533 61.7567 8.64867 61.99 8.574C62.2233 8.49 62.466 8.448 62.718 8.448C63.054 8.448 63.362 8.50867 63.642 8.63C63.9313 8.742 64.188 8.91467 64.412 9.148L63.964 9.932L63.908 10.058L63.81 10.002C63.7913 9.92733 63.7633 9.85733 63.726 9.792C63.6887 9.72667 63.6093 9.64733 63.488 9.554C63.3387 9.46067 63.1987 9.4 63.068 9.372C62.9467 9.33467 62.8067 9.316 62.648 9.316C62.4147 9.316 62.1813 9.36267 61.948 9.456C61.7147 9.54 61.5 9.67533 61.304 9.862C61.1173 10.0487 60.968 10.2867 60.856 10.576C60.744 10.8653 60.688 11.2107 60.688 11.612V15.014H59.666V8.602ZM67.786 11.794L66.946 12.578V15H65.924V5.69H66.932H67.072V5.788C67.016 5.844 66.9787 5.90467 66.96 5.97C66.9507 6.03533 66.946 6.14733 66.946 6.306V11.542L70.152 8.574C70.208 8.58333 70.264 8.59267 70.32 8.602C70.376 8.61133 70.432 8.62067 70.488 8.63C70.5533 8.63 70.6187 8.63467 70.684 8.644C70.7587 8.644 70.8287 8.644 70.894 8.644H71.258L68.57 11.178L71.706 15L70.404 15.056L67.786 11.794ZM45.4 35V34.188H47.038V29.414H45.484V28.602H48.046V34.188H49.544V35H45.4ZM47.486 27.258C47.29 27.258 47.122 27.188 46.982 27.048C46.842 26.908 46.772 26.74 46.772 26.544C46.772 26.3387 46.8373 26.166 46.968 26.026C47.108 25.886 47.2807 25.816 47.486 25.816C47.682 25.816 47.85 25.8907 47.99 26.04C48.1393 26.18 48.214 26.348 48.214 26.544C48.214 26.74 48.1393 26.908 47.99 27.048C47.85 27.188 47.682 27.258 47.486 27.258ZM52.008 35V28.602H52.988V29.736C53.156 29.4747 53.352 29.2507 53.576 29.064C53.8 28.868 54.0473 28.7187 54.318 28.616C54.5887 28.504 54.8687 28.448 55.158 28.448C55.5127 28.448 55.83 28.5367 56.11 28.714C56.39 28.8913 56.614 29.176 56.782 29.568C56.95 29.96 57.034 30.478 57.034 31.122V35H56.054V31.15C56.054 30.702 56.0027 30.3473 55.9 30.086C55.7973 29.8153 55.6573 29.624 55.48 29.512C55.3027 29.3907 55.102 29.33 54.878 29.33C54.6633 29.33 54.444 29.3767 54.22 29.47C54.0053 29.5633 53.8047 29.6987 53.618 29.876C53.4313 30.044 53.2773 30.2493 53.156 30.492C53.044 30.7347 52.988 31.01 52.988 31.318V35H52.008ZM44.84 57.338V48.602H45.862V49.862C45.9647 49.5353 46.1093 49.2693 46.296 49.064C46.492 48.8587 46.716 48.7093 46.968 48.616C47.2293 48.5133 47.5093 48.462 47.808 48.462C48.1627 48.462 48.4987 48.532 48.816 48.672C49.1427 48.8027 49.4273 49.0033 49.67 49.274C49.922 49.5447 50.118 49.8853 50.258 50.296C50.4073 50.7067 50.482 51.192 50.482 51.752C50.482 52.312 50.4027 52.8067 50.244 53.236C50.0947 53.6653 49.8893 54.0247 49.628 54.314C49.376 54.594 49.0867 54.8087 48.76 54.958C48.4427 55.098 48.116 55.168 47.78 55.168C47.528 55.168 47.2807 55.126 47.038 55.042C46.8047 54.9673 46.59 54.8553 46.394 54.706C46.198 54.5473 46.0253 54.3653 45.876 54.16V57.338H44.84ZM47.612 54.272C47.836 54.272 48.0553 54.2347 48.27 54.16C48.4847 54.076 48.6807 53.9407 48.858 53.754C49.0353 53.5673 49.1753 53.3153 49.278 52.998C49.3807 52.6713 49.432 52.27 49.432 51.794C49.432 51.2807 49.3667 50.8467 49.236 50.492C49.1053 50.128 48.914 49.848 48.662 49.652C48.4193 49.456 48.1207 49.3487 47.766 49.33C47.5047 49.3113 47.2573 49.3487 47.024 49.442C46.8 49.5353 46.5993 49.6893 46.422 49.904C46.2447 50.1187 46.1047 50.4033 46.002 50.758C45.9087 51.1033 45.862 51.5233 45.862 52.018C45.8713 52.3167 45.904 52.5873 45.96 52.83C46.016 53.0727 46.0953 53.2873 46.198 53.474C46.3007 53.6513 46.422 53.8007 46.562 53.922C46.702 54.034 46.8607 54.1227 47.038 54.188C47.2153 54.244 47.4067 54.272 47.612 54.272ZM52.666 48.602H53.716L53.674 50.464L53.548 50.254C53.604 49.9647 53.702 49.708 53.842 49.484C53.982 49.26 54.15 49.0733 54.346 48.924C54.542 48.7653 54.7567 48.6487 54.99 48.574C55.2233 48.49 55.466 48.448 55.718 48.448C56.054 48.448 56.362 48.5087 56.642 48.63C56.9313 48.742 57.188 48.9147 57.412 49.148L56.964 49.932L56.908 50.058L56.81 50.002C56.7913 49.9273 56.7633 49.8573 56.726 49.792C56.6887 49.7267 56.6093 49.6473 56.488 49.554C56.3387 49.4607 56.1987 49.4 56.068 49.372C55.9467 49.3347 55.8067 49.316 55.648 49.316C55.4147 49.316 55.1813 49.3627 54.948 49.456C54.7147 49.54 54.5 49.6753 54.304 49.862C54.1173 50.0487 53.968 50.2867 53.856 50.576C53.744 50.8653 53.688 51.2107 53.688 51.612V55.014H52.666V48.602ZM61.5 55.112C60.9213 55.112 60.408 54.972 59.96 54.692C59.5213 54.4027 59.176 54.0107 58.924 53.516C58.672 53.012 58.546 52.438 58.546 51.794C58.546 51.1407 58.672 50.5667 58.924 50.072C59.176 49.568 59.5213 49.176 59.96 48.896C60.408 48.6067 60.9213 48.462 61.5 48.462C62.0787 48.462 62.5873 48.6067 63.026 48.896C63.474 49.176 63.824 49.568 64.076 50.072C64.328 50.5667 64.454 51.1407 64.454 51.794C64.454 52.438 64.328 53.012 64.076 53.516C63.824 54.0107 63.474 54.4027 63.026 54.692C62.5873 54.972 62.0787 55.112 61.5 55.112ZM61.5 54.272C61.8733 54.272 62.2 54.1647 62.48 53.95C62.76 53.7353 62.9793 53.4413 63.138 53.068C63.306 52.6947 63.39 52.2653 63.39 51.78C63.39 51.2947 63.306 50.8653 63.138 50.492C62.9793 50.1187 62.76 49.8293 62.48 49.624C62.2 49.4093 61.8733 49.302 61.5 49.302C61.136 49.302 60.8093 49.4093 60.52 49.624C60.24 49.8293 60.016 50.1187 59.848 50.492C59.6893 50.8653 59.61 51.2947 59.61 51.78C59.61 52.2653 59.6893 52.6947 59.848 53.068C60.016 53.4413 60.24 53.7353 60.52 53.95C60.8093 54.1647 61.136 54.272 61.5 54.272ZM68.458 57.408C68.01 57.408 67.604 57.3707 67.24 57.296C66.8853 57.2307 66.5773 57.128 66.316 56.988C66.064 56.8573 65.868 56.6893 65.728 56.484C65.5973 56.2787 65.532 56.036 65.532 55.756C65.532 55.4947 65.588 55.2613 65.7 55.056C65.812 54.8507 65.9567 54.6827 66.134 54.552C66.3207 54.412 66.5213 54.3093 66.736 54.244L67.156 54.496C66.988 54.5987 66.8527 54.7013 66.75 54.804C66.6473 54.9067 66.5727 55.0233 66.526 55.154C66.4793 55.294 66.456 55.4573 66.456 55.644C66.456 55.8027 66.5027 55.9427 66.596 56.064C66.6893 56.1947 66.82 56.302 66.988 56.386C67.1653 56.47 67.3753 56.5353 67.618 56.582C67.87 56.6287 68.1547 56.652 68.472 56.652C68.9013 56.652 69.2467 56.6053 69.508 56.512C69.7787 56.428 69.9793 56.3067 70.11 56.148C70.2407 55.9987 70.306 55.826 70.306 55.63C70.306 55.4247 70.2687 55.2567 70.194 55.126C70.1193 54.9953 69.9653 54.8973 69.732 54.832C69.4987 54.7667 69.144 54.734 68.668 54.734C68.3413 54.734 68.0427 54.72 67.772 54.692C67.5013 54.664 67.2587 54.6173 67.044 54.552C66.8293 54.4867 66.6473 54.4073 66.498 54.314C66.358 54.2113 66.2507 54.09 66.176 53.95C66.1013 53.81 66.064 53.6467 66.064 53.46C66.064 53.2173 66.1293 52.984 66.26 52.76C66.4 52.536 66.5867 52.3213 66.82 52.116L67.296 52.494C67.2027 52.5967 67.128 52.69 67.072 52.774C67.016 52.8487 66.974 52.9233 66.946 52.998C66.9273 53.0633 66.918 53.138 66.918 53.222C66.918 53.3713 66.974 53.4927 67.086 53.586C67.2073 53.6793 67.4127 53.7493 67.702 53.796C67.9913 53.8333 68.3833 53.852 68.878 53.852C69.3727 53.852 69.774 53.894 70.082 53.978C70.39 54.0527 70.6233 54.1647 70.782 54.314C70.95 54.4633 71.0667 54.636 71.132 54.832C71.1973 55.028 71.23 55.2427 71.23 55.476C71.23 55.728 71.1787 55.966 71.076 56.19C70.9827 56.4233 70.8287 56.6287 70.614 56.806C70.3993 56.9927 70.1147 57.1373 69.76 57.24C69.4053 57.352 68.9713 57.408 68.458 57.408ZM68.164 52.83C67.7067 52.83 67.31 52.732 66.974 52.536C66.638 52.3307 66.3767 52.06 66.19 51.724C66.0127 51.3787 65.924 51.0007 65.924 50.59C65.924 50.1793 66.0127 49.806 66.19 49.47C66.3767 49.134 66.638 48.868 66.974 48.672C67.31 48.4667 67.7067 48.364 68.164 48.364C68.6307 48.364 69.0273 48.4667 69.354 48.672C69.69 48.868 69.9467 49.134 70.124 49.47C70.3107 49.806 70.404 50.1793 70.404 50.59C70.404 51.0007 70.3107 51.3787 70.124 51.724C69.9467 52.06 69.69 52.3307 69.354 52.536C69.0273 52.732 68.6307 52.83 68.164 52.83ZM68.164 51.99C68.4347 51.99 68.6727 51.9293 68.878 51.808C69.0927 51.6773 69.2607 51.5047 69.382 51.29C69.5033 51.0753 69.564 50.842 69.564 50.59C69.564 50.3287 69.5033 50.0953 69.382 49.89C69.2607 49.6753 69.0927 49.5073 68.878 49.386C68.6727 49.2553 68.4347 49.19 68.164 49.19C67.8933 49.19 67.6507 49.2553 67.436 49.386C67.2307 49.5073 67.0673 49.6753 66.946 49.89C66.8247 50.0953 66.764 50.3287 66.764 50.59C66.764 50.842 66.8247 51.0753 66.946 51.29C67.0673 51.5047 67.2307 51.6773 67.436 51.808C67.6507 51.9293 67.8933 51.99 68.164 51.99ZM70.026 49.638L69.634 49.176C69.9047 48.9053 70.1847 48.7093 70.474 48.588C70.7727 48.4573 71.1227 48.406 71.524 48.434L71.65 49.26C71.342 49.232 71.0527 49.2413 70.782 49.288C70.5113 49.3347 70.2593 49.4513 70.026 49.638ZM73.666 48.602H74.716L74.674 50.464L74.548 50.254C74.604 49.9647 74.702 49.708 74.842 49.484C74.982 49.26 75.15 49.0733 75.346 48.924C75.542 48.7653 75.7567 48.6487 75.99 48.574C76.2233 48.49 76.466 48.448 76.718 48.448C77.054 48.448 77.362 48.5087 77.642 48.63C77.9313 48.742 78.188 48.9147 78.412 49.148L77.964 49.932L77.908 50.058L77.81 50.002C77.7913 49.9273 77.7633 49.8573 77.726 49.792C77.6887 49.7267 77.6093 49.6473 77.488 49.554C77.3387 49.4607 77.1987 49.4 77.068 49.372C76.9467 49.3347 76.8067 49.316 76.648 49.316C76.4147 49.316 76.1813 49.3627 75.948 49.456C75.7147 49.54 75.5 49.6753 75.304 49.862C75.1173 50.0487 74.968 50.2867 74.856 50.576C74.744 50.8653 74.688 51.2107 74.688 51.612V55.014H73.666V48.602ZM82.808 55.14C82.3413 55.14 81.9167 55.07 81.534 54.93C81.1513 54.7807 80.82 54.566 80.54 54.286C80.2693 54.006 80.0593 53.6607 79.91 53.25C79.7607 52.83 79.686 52.354 79.686 51.822C79.686 51.2807 79.7607 50.8 79.91 50.38C80.0687 49.96 80.2787 49.61 80.54 49.33C80.8107 49.0407 81.1233 48.8213 81.478 48.672C81.842 48.5227 82.2247 48.448 82.626 48.448C82.99 48.448 83.3307 48.5087 83.648 48.63C83.9653 48.7513 84.2407 48.938 84.474 49.19C84.7073 49.4327 84.8893 49.7453 85.02 50.128C85.16 50.5107 85.23 50.9633 85.23 51.486C85.23 51.5607 85.2253 51.64 85.216 51.724C85.216 51.7987 85.2113 51.8733 85.202 51.948H80.652C80.6707 52.3587 80.7407 52.718 80.862 53.026C80.9833 53.3247 81.142 53.572 81.338 53.768C81.534 53.9547 81.758 54.0947 82.01 54.188C82.2713 54.2813 82.5467 54.328 82.836 54.328C83.06 54.328 83.27 54.3047 83.466 54.258C83.662 54.202 83.844 54.1227 84.012 54.02C84.1893 53.908 84.348 53.7727 84.488 53.614L85.048 54.16C84.8707 54.3747 84.6653 54.5567 84.432 54.706C84.208 54.8553 83.9607 54.9627 83.69 55.028C83.4193 55.1027 83.1253 55.14 82.808 55.14ZM80.694 51.164H84.208C84.208 50.8653 84.166 50.5993 84.082 50.366C84.0073 50.1233 83.8953 49.918 83.746 49.75C83.606 49.5727 83.4333 49.442 83.228 49.358C83.032 49.2647 82.808 49.218 82.556 49.218C82.332 49.218 82.1173 49.2553 81.912 49.33C81.716 49.4047 81.534 49.526 81.366 49.694C81.198 49.8527 81.0533 50.0533 80.932 50.296C80.82 50.5387 80.7407 50.828 80.694 51.164ZM89.514 55.14C89.1593 55.14 88.8187 55.1027 88.492 55.028C88.1747 54.9533 87.8713 54.8413 87.582 54.692C87.302 54.5427 87.0407 54.356 86.798 54.132L87.358 53.18L87.442 53.054L87.526 53.11C87.5447 53.1847 87.5633 53.264 87.582 53.348C87.61 53.4227 87.6753 53.516 87.778 53.628C87.974 53.824 88.2073 53.9873 88.478 54.118C88.758 54.2393 89.1127 54.3 89.542 54.3C89.8873 54.3 90.1767 54.258 90.41 54.174C90.6527 54.09 90.8393 53.9733 90.97 53.824C91.1007 53.6653 91.166 53.4833 91.166 53.278C91.166 53.138 91.138 53.0167 91.082 52.914C91.026 52.802 90.9327 52.6993 90.802 52.606C90.6807 52.5127 90.5173 52.4193 90.312 52.326C90.1067 52.2327 89.8547 52.1393 89.556 52.046C89.0707 51.906 88.646 51.7427 88.282 51.556C87.918 51.3693 87.638 51.1547 87.442 50.912C87.246 50.66 87.148 50.3753 87.148 50.058C87.148 49.7313 87.2367 49.4513 87.414 49.218C87.5913 48.9753 87.8527 48.7887 88.198 48.658C88.5527 48.518 88.9867 48.448 89.5 48.448C89.7987 48.448 90.0693 48.4713 90.312 48.518C90.5547 48.5553 90.7787 48.616 90.984 48.7C91.1893 48.784 91.376 48.8913 91.544 49.022C91.7213 49.1433 91.8893 49.288 92.048 49.456L91.474 50.156L91.376 50.268L91.306 50.198C91.2967 50.1233 91.2733 50.0533 91.236 49.988C91.208 49.9133 91.1427 49.8247 91.04 49.722C90.8253 49.554 90.5827 49.428 90.312 49.344C90.0413 49.2507 89.78 49.204 89.528 49.204C89.1547 49.204 88.8327 49.2693 88.562 49.4C88.2913 49.5307 88.156 49.7313 88.156 50.002C88.156 50.142 88.2027 50.282 88.296 50.422C88.3987 50.5527 88.5807 50.688 88.842 50.828C89.1033 50.9587 89.4767 51.094 89.962 51.234C90.494 51.402 90.9187 51.5747 91.236 51.752C91.5627 51.92 91.796 52.116 91.936 52.34C92.0853 52.564 92.16 52.83 92.16 53.138C92.16 53.4927 92.062 53.824 91.866 54.132C91.6793 54.44 91.39 54.6873 90.998 54.874C90.606 55.0513 90.1113 55.14 89.514 55.14ZM96.514 55.14C96.1593 55.14 95.8187 55.1027 95.492 55.028C95.1747 54.9533 94.8713 54.8413 94.582 54.692C94.302 54.5427 94.0407 54.356 93.798 54.132L94.358 53.18L94.442 53.054L94.526 53.11C94.5447 53.1847 94.5633 53.264 94.582 53.348C94.61 53.4227 94.6753 53.516 94.778 53.628C94.974 53.824 95.2073 53.9873 95.478 54.118C95.758 54.2393 96.1127 54.3 96.542 54.3C96.8873 54.3 97.1767 54.258 97.41 54.174C97.6527 54.09 97.8393 53.9733 97.97 53.824C98.1007 53.6653 98.166 53.4833 98.166 53.278C98.166 53.138 98.138 53.0167 98.082 52.914C98.026 52.802 97.9327 52.6993 97.802 52.606C97.6807 52.5127 97.5173 52.4193 97.312 52.326C97.1067 52.2327 96.8547 52.1393 96.556 52.046C96.0707 51.906 95.646 51.7427 95.282 51.556C94.918 51.3693 94.638 51.1547 94.442 50.912C94.246 50.66 94.148 50.3753 94.148 50.058C94.148 49.7313 94.2367 49.4513 94.414 49.218C94.5913 48.9753 94.8527 48.7887 95.198 48.658C95.5527 48.518 95.9867 48.448 96.5 48.448C96.7987 48.448 97.0693 48.4713 97.312 48.518C97.5547 48.5553 97.7787 48.616 97.984 48.7C98.1893 48.784 98.376 48.8913 98.544 49.022C98.7213 49.1433 98.8893 49.288 99.048 49.456L98.474 50.156L98.376 50.268L98.306 50.198C98.2967 50.1233 98.2733 50.0533 98.236 49.988C98.208 49.9133 98.1427 49.8247 98.04 49.722C97.8253 49.554 97.5827 49.428 97.312 49.344C97.0413 49.2507 96.78 49.204 96.528 49.204C96.1547 49.204 95.8327 49.2693 95.562 49.4C95.2913 49.5307 95.156 49.7313 95.156 50.002C95.156 50.142 95.2027 50.282 95.296 50.422C95.3987 50.5527 95.5807 50.688 95.842 50.828C96.1033 50.9587 96.4767 51.094 96.962 51.234C97.494 51.402 97.9187 51.5747 98.236 51.752C98.5627 51.92 98.796 52.116 98.936 52.34C99.0853 52.564 99.16 52.83 99.16 53.138C99.16 53.4927 99.062 53.824 98.866 54.132C98.6793 54.44 98.39 54.6873 97.998 54.874C97.606 55.0513 97.1113 55.14 96.514 55.14Z" fill="black"/>
</g>
</svg>
